<svg width="406" height="352" viewBox="0 0 406 352" fill="none" xmlns="http://www.w3.org/2000/svg">
<path d="M202.883 343.134L7.16098 4.13419L398.604 4.13416L202.883 343.134Z" fill="#FF5252"/>
<path d="M202.883 251.494L87.7174 52.0211L318.049 52.0211L202.883 251.494Z" fill="#FF5252"/>
<path d="M7.16098 4.13419L202.883 343.134L398.604 4.13416M7.16098 4.13419L398.604 4.13416M7.16098 4.13419L87.7174 52.0211M398.604 4.13416L318.049 52.0211M87.7174 52.0211L202.883 251.494L318.049 52.0211M87.7174 52.0211L318.049 52.0211M201.504 246.634L201.504 336.134M180.833 213.302L180.833 304.943M132.883 52.0211L45.3828 4.13419M296.91 88.6342L377.883 40.0251" stroke="white" stroke-width="8.26829"/>
</svg>
