<svg width="20" height="20" viewBox="0 0 20 20" fill="none" xmlns="http://www.w3.org/2000/svg">
<g clip-path="url(#clip0_2262_14444)">
<g opacity="0.7" filter="url(#filter0_f_2262_14444)">
<path d="M8.46916 1.8421C9.03947 1.20416 10.0722 1.20416 10.6425 1.8421L11.6029 2.91637C11.8863 3.23341 12.306 3.40931 12.7424 3.39389L14.1768 3.34322C15.0032 3.31402 15.683 3.95884 15.6574 4.74795L15.5999 6.52835C15.5879 6.89889 15.7345 7.25812 16.0059 7.5233L17.2763 8.76459C17.8185 9.29441 17.8185 10.1405 17.2763 10.6704L16.0059 11.9117C15.7345 12.1769 15.5879 12.536 15.5999 12.9066L15.6574 14.687C15.683 15.4761 15.0032 16.121 14.1768 16.0918L12.7424 16.041C12.306 16.0257 11.8863 16.2016 11.6029 16.5186L10.6425 17.5929C10.0722 18.2308 9.03947 18.2308 8.46916 17.5929L7.50878 16.5186C7.22536 16.2016 6.80561 16.0257 6.36927 16.041L4.93492 16.0918C4.10841 16.121 3.42872 15.4761 3.45423 14.687L3.51178 12.9066C3.52376 12.536 3.37717 12.1769 3.10578 11.9117L1.8354 10.6704C1.29315 10.1405 1.29315 9.29441 1.8354 8.76459L3.10578 7.5233C3.37717 7.25812 3.52376 6.89889 3.51178 6.52835L3.45423 4.74795C3.42872 3.95884 4.10841 3.31402 4.93493 3.34322L6.36927 3.39389C6.80561 3.40931 7.22536 3.23341 7.50878 2.91637L8.46916 1.8421Z" fill="#228622"/>
</g>
<path d="M9.34 1.69239C9.90464 1.11572 10.8627 1.11572 11.4273 1.69239L12.6739 2.96555C12.9555 3.25316 13.3536 3.41057 13.7659 3.39727L15.5905 3.33842C16.4168 3.31176 17.0944 3.95842 17.0664 4.7473L17.0047 6.48895C16.9908 6.88241 17.1557 7.26242 17.457 7.53124L18.7908 8.72115C19.3949 9.26013 19.3949 10.1747 18.7908 10.7136L17.457 11.9035C17.1557 12.1723 16.9908 12.5523 17.0047 12.9459L17.0664 14.6875C17.0944 15.4763 16.4168 16.123 15.5905 16.0963L13.7659 16.0375C13.3536 16.0242 12.9555 16.1816 12.6739 16.4692L11.4273 17.7424C10.8627 18.319 9.90464 18.319 9.34 17.7424L8.09342 16.4692C7.8118 16.1816 7.4137 16.0242 7.0015 16.0375L5.17692 16.0963C4.35047 16.123 3.67301 15.4763 3.70095 14.6875L3.7626 12.9459C3.77654 12.5523 3.61163 12.1723 3.31032 11.9035L1.97654 10.7136C1.3724 10.1747 1.3724 9.26013 1.97654 8.72115L3.31032 7.53124C3.61163 7.26242 3.77654 6.88241 3.7626 6.48895L3.70095 4.7473C3.67301 3.95842 4.35047 3.31176 5.17692 3.33842L7.0015 3.39727C7.4137 3.41057 7.8118 3.25316 8.09342 2.96555L9.34 1.69239Z" fill="url(#paint0_linear_2262_14444)"/>
<path d="M9.33996 2.48293C9.90463 1.90624 10.8626 1.90624 11.4273 2.48293L12.4362 3.51332C12.7178 3.80094 13.1159 3.95834 13.5282 3.94504L15.0048 3.89741C15.8312 3.87074 16.5087 4.51741 16.4807 5.30629L16.4308 6.71585C16.4169 7.10931 16.5819 7.48933 16.8831 7.75814L17.9626 8.72116C18.5667 9.26015 18.5667 10.1747 17.9626 10.7136L16.8831 11.6766C16.5819 11.9454 16.4169 12.3255 16.4308 12.719L16.4807 14.1285C16.5087 14.9174 15.8312 15.5641 15.0048 15.5374L13.5282 15.4898C13.1159 15.4764 12.7178 15.6339 12.4362 15.9215L11.4273 16.9519C10.8626 17.5285 9.90463 17.5285 9.33997 16.9519L8.33108 15.9215C8.04946 15.6339 7.65136 15.4764 7.23916 15.4898L5.76248 15.5374C4.93603 15.5641 4.25858 14.9174 4.28651 14.1285L4.33641 12.719C4.35034 12.3255 4.18544 11.9454 3.88412 11.6766L2.80466 10.7136C2.20053 10.1747 2.20053 9.26015 2.80466 8.72116L3.88412 7.75814C4.18544 7.48933 4.35034 7.10932 4.33641 6.71585L4.28651 5.3063C4.25858 4.51741 4.93603 3.87074 5.76248 3.89741L7.23916 3.94504C7.65136 3.95834 8.04946 3.80094 8.33108 3.51332L9.33996 2.48293Z" fill="url(#paint1_linear_2262_14444)" fill-opacity="0.5"/>
<g filter="url(#filter1_f_2262_14444)">
<mask id="mask0_2262_14444" style="mask-type:luminance" maskUnits="userSpaceOnUse" x="1" y="1" width="19" height="18">
<path d="M9.34 1.69239C9.90464 1.11572 10.8627 1.11572 11.4273 1.69239L12.6739 2.96555C12.9555 3.25316 13.3536 3.41057 13.7659 3.39727L15.5905 3.33842C16.4168 3.31176 17.0944 3.95842 17.0664 4.7473L17.0047 6.48895C16.9908 6.88241 17.1557 7.26242 17.457 7.53124L18.7908 8.72115C19.3949 9.26013 19.3949 10.1747 18.7908 10.7136L17.457 11.9035C17.1557 12.1723 16.9908 12.5523 17.0047 12.9459L17.0664 14.6875C17.0944 15.4763 16.4168 16.123 15.5905 16.0963L13.7659 16.0375C13.3536 16.0242 12.9555 16.1816 12.6739 16.4692L11.4273 17.7424C10.8627 18.319 9.90464 18.319 9.34 17.7424L8.09342 16.4692C7.8118 16.1816 7.4137 16.0242 7.0015 16.0375L5.17692 16.0963C4.35047 16.123 3.67301 15.4763 3.70095 14.6875L3.7626 12.9459C3.77654 12.5523 3.61163 12.1723 3.31032 11.9035L1.97654 10.7136C1.3724 10.1747 1.3724 9.26013 1.97654 8.72115L3.31032 7.53124C3.61163 7.26242 3.77654 6.88241 3.7626 6.48895L3.70095 4.7473C3.67301 3.95842 4.35047 3.31176 5.17692 3.33842L7.0015 3.39727C7.4137 3.41057 7.8118 3.25316 8.09342 2.96555L9.34 1.69239Z" fill="white"/>
</mask>
<g mask="url(#mask0_2262_14444)">
<path d="M11.4274 1.69238C11.8375 2.12168 12.2477 2.55081 12.658 2.9798C12.899 3.23324 13.2432 3.39648 13.6034 3.42617C13.6578 3.4308 13.7124 3.43252 13.7671 3.43132C14.3756 3.41813 14.984 3.40471 15.5923 3.39107C16.3573 3.355 17.0421 4.02861 16.9884 4.74477C16.9621 5.32513 16.9362 5.90551 16.9105 6.4859C16.8904 6.89941 17.0677 7.31856 17.3858 7.60403C17.8271 8.00406 18.2685 8.40391 18.7101 8.8036C19.2531 9.27011 19.243 10.1678 18.6994 10.6202C18.2522 11.0142 17.8053 11.4084 17.3584 11.8027C17.0282 12.0917 16.8389 12.5216 16.8541 12.9507C16.8717 13.5313 16.8895 14.1119 16.9076 14.6926C16.9473 15.3669 16.2972 15.9801 15.5961 15.9367C14.988 15.9152 14.3799 15.894 13.7718 15.873C13.3162 15.8555 12.8571 16.0359 12.5462 16.3552C12.13 16.7789 11.7138 17.2027 11.2979 17.6267C10.8353 18.1247 9.93195 18.1239 9.47052 17.6259C9.055 17.2016 8.6393 16.7774 8.22343 16.3533C7.91233 16.0331 7.45237 15.8517 6.99561 15.869C6.38744 15.8894 5.77929 15.91 5.17113 15.9308C4.47334 15.9733 3.82802 15.3627 3.86832 14.6928C3.887 14.1122 3.90543 13.5317 3.92363 12.951C3.93939 12.5191 3.7492 12.0861 3.4169 11.7947C2.97048 11.3999 2.52389 11.0054 2.07715 10.6109C1.53967 10.1627 1.53108 9.27475 2.06806 8.81453C2.51008 8.41527 2.95193 8.01583 3.39363 7.61624C3.71568 7.32782 3.8956 6.90391 3.8757 6.48529C3.85059 5.90489 3.82524 5.32449 3.79964 4.7441C3.74743 4.0388 4.42227 3.37674 5.17435 3.41293C5.78273 3.42716 6.39112 3.44116 6.99953 3.45493C7.42348 3.46652 7.84599 3.29397 8.12847 2.99672C8.41697 2.69573 8.7054 2.39467 8.99374 2.09352C9.11597 1.96587 9.23818 1.8382 9.36038 1.7105C9.87024 1.14674 10.8913 1.12962 11.4274 1.69238C10.9079 1.11686 9.86557 1.09974 9.31975 1.67426C9.19454 1.79926 9.06934 1.92427 8.94416 2.0493C8.64887 2.34423 8.35366 2.63924 8.05852 2.93433C7.78814 3.20692 7.39271 3.35777 7.00361 3.33959C6.39563 3.31412 5.78763 3.28889 5.17963 3.26387C4.34207 3.20769 3.55782 3.93839 3.60239 4.75047C3.6179 5.33118 3.63366 5.91189 3.64965 6.49258C3.66094 6.85005 3.50206 7.20689 3.22714 7.4462C2.77966 7.83989 2.33233 8.23373 1.88516 8.62774C1.22967 9.17511 1.22108 10.2569 1.87608 10.8163C2.3185 11.2151 2.7611 11.6137 3.20387 12.0123C3.46854 12.2487 3.61715 12.5964 3.60172 12.9406C3.57882 13.5211 3.55614 14.1016 3.5337 14.682C3.47723 15.5297 4.29099 16.3117 5.18285 16.2618C5.79109 16.2434 6.39931 16.2247 7.00753 16.2059C7.36382 16.1934 7.72179 16.3355 7.96356 16.5851C8.37873 17.0098 8.79409 17.4344 9.20961 17.8587C9.80376 18.4991 10.964 18.4984 11.557 17.8579C11.972 17.4332 12.387 17.0083 12.8018 16.5832C13.0438 16.3327 13.4026 16.1897 13.76 16.2019C14.3683 16.2202 14.9766 16.2382 15.5848 16.256C16.4734 16.3049 17.2824 15.5254 17.2254 14.6823C17.2023 14.1018 17.179 13.5214 17.1555 12.9409C17.1396 12.5939 17.289 12.243 17.5558 12.0043C17.9981 11.6054 18.4403 11.2063 18.8823 10.807C19.5312 10.2517 19.5211 9.17984 18.8716 8.63866C18.424 8.24508 17.9763 7.85167 17.5283 7.45841C17.2496 7.21615 17.088 6.85455 17.0991 6.49198C17.1145 5.91126 17.1297 5.33054 17.1445 4.7498C17.1876 3.94858 16.4133 3.22943 15.5886 3.28573C14.9806 3.31132 14.3726 3.33715 13.7647 3.3632C13.7127 3.36544 13.6606 3.3649 13.6087 3.3616C13.2646 3.34062 12.9297 3.19184 12.69 2.95126C12.2693 2.53148 11.8484 2.11185 11.4274 1.69238Z" fill="white"/>
</g>
</g>
<path d="M5.41406 10.5082L7.48445 12.4845L14.4705 6.95093" stroke="#0B760B" stroke-linecap="round" stroke-linejoin="round"/>
<path d="M5.82959 10.1127L8.33281 12.4778L14.9546 7.1958" stroke="white" stroke-linecap="round" stroke-linejoin="round"/>
</g>
<defs>
<filter id="filter0_f_2262_14444" x="-0.0712571" y="-0.136321" width="19.2543" height="19.7076" filterUnits="userSpaceOnUse" color-interpolation-filters="sRGB">
<feFlood flood-opacity="0" result="BackgroundImageFix"/>
<feBlend mode="normal" in="SourceGraphic" in2="BackgroundImageFix" result="shape"/>
<feGaussianBlur stdDeviation="0.749984" result="effect1_foregroundBlur_2262_14444"/>
</filter>
<filter id="filter1_f_2262_14444" x="1.14845" y="0.884896" width="18.4707" height="17.665" filterUnits="userSpaceOnUse" color-interpolation-filters="sRGB">
<feFlood flood-opacity="0" result="BackgroundImageFix"/>
<feBlend mode="normal" in="SourceGraphic" in2="BackgroundImageFix" result="shape"/>
<feGaussianBlur stdDeviation="0.187496" result="effect1_foregroundBlur_2262_14444"/>
</filter>
<linearGradient id="paint0_linear_2262_14444" x1="10.3837" y1="0.626472" x2="10.3837" y2="18.8083" gradientUnits="userSpaceOnUse">
<stop stop-color="#1CC81C"/>
<stop offset="1" stop-color="#11CF11"/>
</linearGradient>
<linearGradient id="paint1_linear_2262_14444" x1="10.3837" y1="1.417" x2="10.3837" y2="18.0178" gradientUnits="userSpaceOnUse">
<stop offset="0.0486351" stop-color="#08AA08"/>
<stop offset="0.974484" stop-color="#006100"/>
</linearGradient>
<clipPath id="clip0_2262_14444">
<rect width="20" height="20" fill="white"/>
</clipPath>
</defs>
</svg>
